<?xml version="1.0" encoding="utf-8"?>
<!-- Generator: Adobe Illustrator 27.5.0, SVG Export Plug-In . SVG Version: 6.00 Build 0)  -->
<svg version="1.1" xmlns="http://www.w3.org/2000/svg" xmlns:xlink="http://www.w3.org/1999/xlink" x="0px" y="0px"
	 viewBox="0 0 500 500" style="enable-background:new 0 0 500 500;" xml:space="preserve">
<g id="BACKGROUND">
	<rect style="fill:#AAC8DA;" width="500" height="500"/>
</g>
<g id="OBJECTS">
	<g>
		<rect y="372.047" style="fill:#9CBFD0;" width="500" height="127.953"/>
		<g>
			<g>
				<g>
					<rect x="254.14" y="241.235" style="fill:#FFFFFF;" width="205.82" height="8.804"/>
					<rect x="264.594" y="245.637" style="fill:#FFFFFF;" width="4.056" height="128.244"/>
					<rect x="446.716" y="245.637" style="fill:#FFFFFF;" width="4.056" height="128.244"/>
				</g>
				<g>
					<g>
						<path style="fill:#559192;" d="M396.777,168.436c0,0-21.976,17.294,0,39.269C396.777,207.705,417.771,188.977,396.777,168.436
							z"/>
						
							<line style="fill:none;stroke:#000000;stroke-width:0.6686;stroke-linecap:round;stroke-linejoin:round;stroke-miterlimit:10;" x1="396.777" y1="188.07" x2="396.777" y2="230.061"/>
					</g>
					<g>
						<path style="fill:#559192;" d="M429.347,192.004c0,0-23.9-1.736-22.671,24.868
							C406.676,216.872,430.783,217.132,429.347,192.004z"/>
						
							<line style="fill:none;stroke:#000000;stroke-width:0.6686;stroke-linecap:round;stroke-linejoin:round;stroke-miterlimit:10;" x1="417.97" y1="204.288" x2="399.705" y2="225.108"/>
					</g>
					<g>
						<rect x="381.523" y="221.902" style="fill:#FFFFFF;" width="30.509" height="19.333"/>
						
							<line style="fill:none;stroke:#AAC8DA;stroke-linejoin:bevel;stroke-miterlimit:10;" x1="381.523" y1="240.693" x2="412.032" y2="240.693"/>
					</g>
				</g>
				<g>
					<g>
						<rect x="285.289" y="233.114" style="fill:#4A76A5;" width="64.568" height="8.121"/>
						<rect x="285.289" y="216.872" style="fill:#4A76A5;" width="64.568" height="8.121"/>
						<rect x="277.594" y="224.993" width="64.568" height="8.121"/>
					</g>
					<g>
						<path style="fill:#FFFFFF;" d="M294.121,207.066h38.946c0,0,0.641,6.404-3.042,9.927h-32.342
							C297.682,216.992,293,212.99,294.121,207.066z"/>
						<rect x="294.121" y="204.605" width="38.988" height="2.461"/>
					</g>
				</g>
			</g>
			<g>
				<g>
					<g>
						<rect x="51.381" y="51.439" style="fill:#8CB4C3;" width="162.013" height="157.627"/>
						
							<rect x="38.079" y="37.029" style="fill:none;stroke:#8CB4C3;stroke-width:1.5;stroke-miterlimit:10;" width="188.617" height="185.903"/>
						<rect x="57.478" y="56.883" style="fill:#D8F2FF;" width="150.36" height="70.899"/>
						<rect x="57.478" y="132.986" style="fill:#D8F2FF;" width="150.36" height="70.899"/>
						<g>
							
								<ellipse transform="matrix(0.7258 -0.6879 0.6879 0.7258 -27.4598 113.6679)" style="fill:#ECC452;" cx="128.842" cy="91.276" rx="13.979" ry="13.979"/>
							<path style="fill:#FFFFFF;" d="M161.82,154.391c0,0,1.102-3.307,4.409-3.392c3.307-0.085,2.12,1.562,5.596,1.223
								c3.477-0.339,2.205-3.937,7.632-4.784c5.427-0.848,7.716,6.953,7.716,6.953H161.82z"/>
							<path style="fill:#FFFFFF;" d="M71.134,112.996c0,0,2.796-7.359,11.183-7.548c8.387-0.189,7.751,2.168,14.193,1.957
								c5.833-0.191,6.774-8.068,19.354-9.882c13.75-1.982,19.569,15.472,19.569,15.472H71.134z"/>
						</g>
					</g>
				</g>
				<g>
					
						<rect x="269.594" y="67.535" style="fill:none;stroke:#8CB4C3;stroke-width:1.5;stroke-miterlimit:10;" width="60.857" height="79.292"/>
					<rect x="282.458" y="80.798" style="fill:#FFFFFF;" width="35.128" height="52.767"/>
				</g>
				<g>
					
						<rect x="360.277" y="98.576" style="fill:none;stroke:#8CB4C3;stroke-width:1.5;stroke-miterlimit:10;" width="91.364" height="48.251"/>
					
						<rect x="377.79" y="109.256" style="fill:none;stroke:#8CB4C3;stroke-width:1.5;stroke-miterlimit:10;" width="56.337" height="26.893"/>
				</g>
			</g>
		</g>
	</g>
	<g>
		<polygon style="fill:#4A76A5;" points="422.612,404.129 298.466,403.704 298.466,403.659 288.052,403.681 277.637,403.659 
			277.637,403.704 84.353,404.129 34.587,445.263 277.637,445.263 298.466,445.263 472.379,445.263 		"/>
		<g>
			<g>
				<path d="M91.189,211.612c0,0-21.364,2.301-26.115,17.506c-4.751,15.205,14.393,35.957,33.782,21.301L91.189,211.612z"/>
				<polygon style="fill:#BA6D3F;" points="112.917,265.42 132.951,283.236 149.922,267.132 116.886,243.709 				"/>
				<polygon points="122.489,273.933 119.254,253.862 115.457,267.68 				"/>
				<path style="fill:#BA6D3F;" d="M80.736,223.02c0,0-9.471,7.73-2.514,21.223c0,0,2.556,5.192,10.082,19.125
					c3.977,7.363,13.872,14.176,22.721,8.402c4.292-2.801,7.608-8.014,10.009-13.787l2.82-9.136
					c5.093-23.891-22.324-41.783-41.722-26.937C81.668,222.265,81.203,222.635,80.736,223.02z"/>
				<path style="fill:#BA6D3F;" d="M84.648,253.862l0.184,10.356c-0.08,0.929,0.706,1.888,1.66,1.469l5.212-1.886L84.648,253.862z"
					/>
				<path d="M108.17,238.662c0,0-12.08-35.533-32.263-6.734c0,0,0.714-23.612,31.057-26.93c6.354-0.695,18.641,2.696,22.712,7.624
					c6.587,7.974-0.633,21.37-0.547,39.767l-12.242-8.68C115.066,241.807,108.17,238.662,108.17,238.662z"/>
				<path d="M89.29,215.386c-4.694,24.524,19.64,28.016,19.64,28.016l0,0l-0.132-20.475
					C108.799,222.927,90.069,211.318,89.29,215.386z"/>
				<g>
					<path style="fill:#BA6D3F;" d="M121.508,236.182c2.515,3.67,1.579,8.685-2.092,11.2c-3.67,2.515-8.685,1.579-11.2-2.092
						c-2.515-3.67-1.578-8.685,2.092-11.199C113.978,231.575,118.993,232.511,121.508,236.182z"/>
					
						<path style="fill:none;stroke:#000000;stroke-width:0.7191;stroke-linecap:round;stroke-linejoin:round;stroke-miterlimit:10;" d="
						M113.624,245.465c0,0-1.809-3.815,1.814-7.613"/>
				</g>
				<path d="M143.618,190.88c2.246,10.319-4.298,20.505-14.617,22.752c-10.319,2.246-20.505-4.298-22.752-14.617
					c-2.246-10.319,4.298-20.505,14.617-22.752C131.185,174.017,141.371,180.561,143.618,190.88z"/>
				<g>
					<g>
						<g>
							
								<path style="fill:none;stroke:#000000;stroke-width:0.7191;stroke-linecap:round;stroke-linejoin:round;stroke-miterlimit:10;" d="
								M94.02,265.653c2.063-0.449,4.083-2.497,4.392-4.187"/>
						</g>
					</g>
					<path d="M80.455,244.125l12.433-1.876c0,0-3.599-2.453-8.292-2.339C78.292,240.064,80.455,244.125,80.455,244.125z"/>
					<g>
						<g>
							<defs>
								<path id="XMLID_4_" d="M85.737,248.306c0,0,3.956-1.066,5.914,2.423c1.958,3.489-2.038,5.244-2.038,5.244
									S84.054,253.398,85.737,248.306z"/>
							</defs>
							<use xlink:href="#XMLID_4_"  style="overflow:visible;fill:#FFFFFF;"/>
							<clipPath id="XMLID_00000124152301317509756790000017275172467891385519_">
								<use xlink:href="#XMLID_4_"  style="overflow:visible;"/>
							</clipPath>
							<path style="clip-path:url(#XMLID_00000124152301317509756790000017275172467891385519_);" d="M85.982,247.016
								c0,0,5.415,3.711,3.631,8.957c-1.785,5.246,0,0,0,0l-2.089,0.838l-3.017-5.613L85.982,247.016z"/>
						</g>
						<g>
							<path d="M84.418,247.856c0.68-0.294,1.282-0.419,1.945-0.489c0.651-0.06,1.314-0.014,1.944,0.147
								c0.628,0.16,1.231,0.423,1.741,0.799c0.529,0.352,0.95,0.817,1.339,1.286c0.082,0.099,0.069,0.245-0.03,0.327
								c-0.09,0.075-0.219,0.07-0.303-0.005l-0.015-0.013c-0.426-0.381-0.863-0.742-1.364-0.976c-0.485-0.26-1.016-0.4-1.543-0.455
								c-0.529-0.055-1.063-0.015-1.577,0.11c-0.5,0.12-1.042,0.339-1.416,0.574l-0.025,0.016c-0.35,0.22-0.812,0.115-1.032-0.235
								c-0.22-0.35-0.115-0.812,0.235-1.032C84.348,247.889,84.385,247.871,84.418,247.856z"/>
						</g>
					</g>
				</g>
				<path d="M75.749,236.291c0,0,0.873-10.146,12.945-15.288l1.375-4.567l-12.822,3.771l-6.687,6.662l-0.124,8.742L75.749,236.291z"
					/>
			</g>
			<g>
				<g>
					<path style="fill:#BA6D3F;" d="M299.691,334.237l31.107,66.333l-8.535,24.854c0,0-29.13-24.8-57.971-65.389v-37.704
						L299.691,334.237z"/>
					<path style="fill:#4A76A5;" d="M237.599,290.32c0,0,30.196-10.846,48.429,13.96l16.454,27.897l-18.677,14.696l-11.041-6.631
						l2.419,12.411l-10.944,7.56c0,0-17.321-21.832-29.783-28.037L237.599,290.32z"/>
				</g>
				<g>
					<g>
						<path style="fill:#BA6D3F;" d="M339.244,425.041l78.542-69.676l-6.998-13.297l-40.978,27.681c0,0-42.551,20.164-50.573,37.06
							c-2.347,4.944-2.039,11.567,0.924,16.168l0,0C324.287,429.386,333.542,430.099,339.244,425.041z"/>
						<polygon style="fill:#FFFFFF;" points="410.788,342.069 387.801,357.596 397.388,373.461 417.786,355.366 						"/>
					</g>
					<g>
						<path d="M412.665,349.248l0.122,0.181c1.279,1.897,0.88,4.388-0.798,5.942c-1.136,1.052-2.247,2.616-2.794,4.909
							c-0.51,2.134,0.726,4.303,2.808,4.995c7.097,2.359,24.775,8.701,37.931,17.346c3.029,1.99,6.827,2.402,10.182,1.032
							l1.823-0.744L420.45,328.11l-17.879,11.689c-2.119,1.053-3.033,3.588-2.073,5.751l0,0c0.887,1.999,3.103,3.048,5.212,2.468
							l2.018-0.598C409.594,346.906,411.582,347.642,412.665,349.248z"/>
						<path style="fill:#FFFFFF;" d="M420.45,328.11c0,0-0.036-1.095,1.133-1.842c1.415-0.905,3.31-0.442,4.316,0.903l37.533,49.356
							c1.592,2.129,0.878,5.18-1.494,6.381l0,0L420.45,328.11z"/>
						<g>
							
								<path style="fill:none;stroke:#FFFFFF;stroke-width:1.0958;stroke-linecap:round;stroke-linejoin:round;stroke-miterlimit:10;" d="
								M422.222,369.194c0,0-1.181-1.751,1.407-5.791"/>
							
								<path style="fill:none;stroke:#FFFFFF;stroke-width:1.0958;stroke-linecap:round;stroke-linejoin:round;stroke-miterlimit:10;" d="
								M425.461,370.657c0,0-1.181-1.751,1.407-5.791"/>
							
								<path style="fill:none;stroke:#FFFFFF;stroke-width:1.0958;stroke-linecap:round;stroke-linejoin:round;stroke-miterlimit:10;" d="
								M428.7,372.12c0,0-1.181-1.751,1.407-5.791"/>
						</g>
						<path style="fill:#4A76A5;" d="M413.193,332.855c0,0,7.276,17.067,28.48,22.874L420.45,328.11
							C420.45,328.11,416.047,328.757,413.193,332.855z"/>
						<path style="fill:#4A76A5;" d="M434.022,373.955c0,0,3.764-3.132,8.971-0.222c5.208,2.91,4.806,7.528,4.806,7.528
							L434.022,373.955z"/>
					</g>
				</g>
			</g>
			<g>
				<g>
					<path style="fill:#BA6D3F;" d="M203.205,276.383c0,0,18.043,18.619,34.395,13.938l-3.145,41.857
						c0,0-32.453-4.247-43.741-11.871L203.205,276.383z"/>
					<path style="fill:#F0F6F9;" d="M154.293,318.547c0,0,10.191,7.911,25.179,0l11.242,1.758c0,0,12.491-17.39,12.491-43.923
						c0,0-33.226-27.661-61.527-13.35L154.293,318.547z"/>
					<path style="fill:#BA6D3F;" d="M136.939,263.472c0,0,30.632-7.637,36.559,7.838c5.927,15.475-9.878,28.646-19.427,29.634
						c-9.549,0.988-20.277-16.243-20.277-16.243L136.939,263.472z"/>
				</g>
				<g>
					<g>
						<path style="fill:#BA6D3F;" d="M138.517,270.63c0,0-9.232,6.963-4.723,28.845c2.998,14.55,5.909,32.363,7.523,42.667
							c0.765,4.883,4.973,8.478,9.916,8.478l0,0c5.529,0,10.016-4.463,10.038-9.992c0.071-17.65-0.2-53.499-3.405-64.247
							L138.517,270.63z"/>
						
							<path style="fill:none;stroke:#000000;stroke-width:0.7191;stroke-linecap:round;stroke-linejoin:round;stroke-miterlimit:10;" d="
							M160.486,298.882c0,0-0.891-10.806,0.81-14.331"/>
						
							<path style="fill:none;stroke:#000000;stroke-width:0.7191;stroke-linecap:round;stroke-linejoin:round;stroke-miterlimit:10;" d="
							M132.951,283.236c0,0,0.491-7.189,4.957-10.805"/>
					</g>
					<g>
						<path style="fill:#BA6D3F;" d="M145.31,336.182c0,0-7.14,12.5-6.793,28.879c0.348,16.379-1.349,48.62-5.242,58.965
							l13.498-4.727c0,0,15.088-50.346,14.507-83.117H145.31z"/>
						<path style="fill:#BA6D3F;" d="M136.655,405.896c0,0-0.73,8.801-18.418,13.405l-17.862,4.534
							c-1.112,0.111-1.959,1.046-1.959,2.164l0,0c0,1.201,0.973,2.174,2.174,2.174h38.03c4.792,0,8.731-4.117,8.153-8.874
							c-0.199-1.632-0.788-3.495-1.968-5.592L136.655,405.896z"/>
					</g>
				</g>
			</g>
		</g>
	</g>
</g>
</svg>
